# xmcd
# 
# Track frame offsets:
#     182
#     18710
#     37147
#     53785
#     70910
#     96435
#     112760
#     132072
#     157797
#     172872
#     190960
#     211585
#     230110
#     246397
#     262510
#     280835
#     299785
# 
# Disc length: 4235
# 
# Revision: 2
# Processed by: cddbd v1.5.2PL0 Copyright (c) Steve Scherf et al.
# Submitted via: fre:ac v1.1beta2
# 
DISCID=f1108911
DTITLE=Various Artist - 20 Fingers
DYEAR=1995
DGENRE=Hardcore
TTITLE0=Katrina - Sex Machine
TTITLE1=Big Sister - Round We Go
TTITLE2=Bongo Boys - Cave Man
TTITLE3=Dance Factor - Electric Slide
TTITLE4=Bongo Boys - Bring It On Back
TTITLE5=Ted Tubbaki and Goober - Choke My Chicken
TTITLE6=Vicki R - 100% Woman
TTITLE7=Bongo Boys - The Raw
TTITLE8=Gillette - Short Dick Man
TTITLE9=Rochelle - Holding On To Love
TTITLE10=Nerada - Position #9
TTITLE11=Gillette - Mr. Personality
TTITLE12=Roula - Lick It
TTITLE13=Jr Flex - Work That Love
TTITLE14=Cassandra - Popsicle Love
TTITLE15=20 Fingers - Putang Ina Mo
TTITLE16=Bongo Boys - Litle Melody (That Damn Song)
EXTD=
EXTT0=
EXTT1=
EXTT2=
EXTT3=
EXTT4=
EXTT5=
EXTT6=
EXTT7=
EXTT8=
EXTT9=
EXTT10=
EXTT11=
EXTT12=
EXTT13=
EXTT14=
EXTT15=
EXTT16=
PLAYORDER=
